<?xml version="1.0" encoding="utf-8" standalone="no"?>
<!DOCTYPE svg PUBLIC "-//W3C//DTD SVG 1.1//EN"
  "http://www.w3.org/Graphics/SVG/1.1/DTD/svg11.dtd">
<!-- Created with matplotlib (http://matplotlib.org/) -->
<svg height="518pt" version="1.1" viewBox="0 0 897 518" width="897pt" xmlns="http://www.w3.org/2000/svg" xmlns:xlink="http://www.w3.org/1999/xlink">
 <defs>
  <style type="text/css">
*{stroke-linecap:butt;stroke-linejoin:round;stroke-miterlimit:100000;}
  </style>
 </defs>
 <g id="figure_1">
  <g id="patch_1">
   <path d="M 0 518.4 
L 897.3 518.4 
L 897.3 0 
L 0 0 
z
" style="fill:#ffffff;"/>
  </g>
  <g id="axes_1">
   <g id="patch_2">
    <path d="M 112.1625 466.56 
L 807.57 466.56 
L 807.57 51.84 
L 112.1625 51.84 
z
" style="fill:#ffffff;"/>
   </g>
   <g id="PathCollection_1">
    <defs>
     <path d="M 0 2.236068 
C 0.593012 2.236068 1.161816 2.000462 1.581139 1.581139 
C 2.000462 1.161816 2.236068 0.593012 2.236068 0 
C 2.236068 -0.593012 2.000462 -1.161816 1.581139 -1.581139 
C 1.161816 -2.000462 0.593012 -2.236068 0 -2.236068 
C -0.593012 -2.236068 -1.161816 -2.000462 -1.581139 -1.581139 
C -2.000462 -1.161816 -2.236068 -0.593012 -2.236068 0 
C -2.236068 0.593012 -2.000462 1.161816 -1.581139 1.581139 
C -1.161816 2.000462 -0.593012 2.236068 0 2.236068 
z
" id="mcf45625995" style="stroke:#000000;"/>
    </defs>
    <g clip-path="url(#p0c5796ade1)">
     <use style="fill:#ff0000;stroke:#000000;" x="637.0522313829592" xlink:href="#mcf45625995" y="192.5700595092773"/>
     <use style="fill:#ff0000;stroke:#000000;" x="581.8401178685326" xlink:href="#mcf45625995" y="192.17502548217772"/>
     <use style="fill:#ff0000;stroke:#000000;" x="455.80009625058426" xlink:href="#mcf45625995" y="190.92107620239256"/>
     <use style="fill:#ff0000;stroke:#000000;" x="223.52945427474356" xlink:href="#mcf45625995" y="231.9803098297119"/>
     <use style="fill:#ff0000;stroke:#000000;" x="627.2073927444783" xlink:href="#mcf45625995" y="192.51060974121094"/>
     <use style="fill:#ff0000;stroke:#000000;" x="727.2909414674048" xlink:href="#mcf45625995" y="192.90914978027342"/>
     <use style="fill:#ff0000;stroke:#000000;" x="410.2564132153809" xlink:href="#mcf45625995" y="190.67773590087887"/>
     <use style="fill:#ff0000;stroke:#000000;" x="249.35792384480763" xlink:href="#mcf45625995" y="211.78602493286132"/>
     <use style="fill:#ff0000;stroke:#000000;" x="312.5987384717992" xlink:href="#mcf45625995" y="193.87594802856444"/>
     <use style="fill:#ff0000;stroke:#000000;" x="319.7926799627146" xlink:href="#mcf45625995" y="193.19803527832028"/>
     <use style="fill:#ff0000;stroke:#000000;" x="381.2511894904857" xlink:href="#mcf45625995" y="190.8087190246582"/>
     <use style="fill:#ff0000;stroke:#000000;" x="509.10094486673165" xlink:href="#mcf45625995" y="191.45900390625"/>
     <use style="fill:#ff0000;stroke:#000000;" x="279.72224188002303" xlink:href="#mcf45625995" y="199.49360504150388"/>
     <use style="fill:#ff0000;stroke:#000000;" x="461.59922665561146" xlink:href="#mcf45625995" y="190.97269409179685"/>
     <use style="fill:#ff0000;stroke:#000000;" x="692.6305480485967" xlink:href="#mcf45625995" y="192.8199668884277"/>
     <use style="fill:#ff0000;stroke:#000000;" x="592.296213067314" xlink:href="#mcf45625995" y="192.26123382568358"/>
     <use style="fill:#ff0000;stroke:#000000;" x="376.1724019708007" xlink:href="#mcf45625995" y="190.87091674804685"/>
     <use style="fill:#ff0000;stroke:#000000;" x="686.1474314404172" xlink:href="#mcf45625995" y="192.79791732788084"/>
     <use style="fill:#ff0000;stroke:#000000;" x="704.0956936439884" xlink:href="#mcf45625995" y="192.85464385986324"/>
     <use style="fill:#ff0000;stroke:#000000;" x="332.05276729150927" xlink:href="#mcf45625995" y="192.31768432617184"/>
     <use style="fill:#ff0000;stroke:#000000;" x="334.50823714046606" xlink:href="#mcf45625995" y="192.17554870605466"/>
     <use style="fill:#ff0000;stroke:#000000;" x="276.6902430236143" xlink:href="#mcf45625995" y="200.319874420166"/>
     <use style="fill:#ff0000;stroke:#000000;" x="625.3964309213397" xlink:href="#mcf45625995" y="192.49915237426757"/>
     <use style="fill:#ff0000;stroke:#000000;" x="559.2429699933566" xlink:href="#mcf45625995" y="191.97182510375976"/>
     <use style="fill:#ff0000;stroke:#000000;" x="660.5513550611639" xlink:href="#mcf45625995" y="192.69305007934568"/>
     <use style="fill:#ff0000;stroke:#000000;" x="684.8046863481734" xlink:href="#mcf45625995" y="192.79313415527344"/>
     <use style="fill:#ff0000;stroke:#000000;" x="457.0076136759041" xlink:href="#mcf45625995" y="190.93159835815428"/>
     <use style="fill:#ff0000;stroke:#000000;" x="514.8387763560681" xlink:href="#mcf45625995" y="191.52025405883788"/>
     <use style="fill:#ff0000;stroke:#000000;" x="423.2405008285092" xlink:href="#mcf45625995" y="190.7075926208496"/>
     <use style="fill:#ff0000;stroke:#000000;" x="419.85359276911106" xlink:href="#mcf45625995" y="190.69589218139646"/>
     <use style="fill:#ff0000;stroke:#000000;" x="276.67911217478763" xlink:href="#mcf45625995" y="200.32305084228514"/>
     <use style="fill:#ff0000;stroke:#000000;" x="740.1119107853756" xlink:href="#mcf45625995" y="192.930906829834"/>
     <use style="fill:#ff0000;stroke:#000000;" x="462.4965467612628" xlink:href="#mcf45625995" y="190.98094619750975"/>
     <use style="fill:#ff0000;stroke:#000000;" x="394.5356487732431" xlink:href="#mcf45625995" y="190.70744018554686"/>
     <use style="fill:#ff0000;stroke:#000000;" x="707.7126966371936" xlink:href="#mcf45625995" y="192.8644821166992"/>
     <use style="fill:#ff0000;stroke:#000000;" x="555.0072640496536" xlink:href="#mcf45625995" y="191.931417388916"/>
     <use style="fill:#ff0000;stroke:#000000;" x="209.2471603811564" xlink:href="#mcf45625995" y="247.2956669998169"/>
     <use style="fill:#ff0000;stroke:#000000;" x="603.1152111170078" xlink:href="#mcf45625995" y="192.3449166870117"/>
     <use style="fill:#ff0000;stroke:#000000;" x="414.8781091233175" xlink:href="#mcf45625995" y="190.68353668212887"/>
     <use style="fill:#ff0000;stroke:#000000;" x="615.069864992194" xlink:href="#mcf45625995" y="192.4307089233398"/>
     <use style="fill:#ff0000;stroke:#000000;" x="484.9934809493495" xlink:href="#mcf45625995" y="191.2033575439453"/>
     <use style="fill:#ff0000;stroke:#000000;" x="644.2411089551573" xlink:href="#mcf45625995" y="192.61049194335936"/>
     <use style="fill:#ff0000;stroke:#000000;" x="503.32324225324606" xlink:href="#mcf45625995" y="191.3972634887695"/>
     <use style="fill:#ff0000;stroke:#000000;" x="406.73975900602454" xlink:href="#mcf45625995" y="190.67738983154294"/>
     <use style="fill:#ff0000;stroke:#000000;" x="200.26194013593576" xlink:href="#mcf45625995" y="257.8096121120453"/>
     <use style="fill:#ff0000;stroke:#000000;" x="294.4201156736069" xlink:href="#mcf45625995" y="196.34384262084959"/>
     <use style="fill:#ff0000;stroke:#000000;" x="440.2954740825453" xlink:href="#mcf45625995" y="190.80017440795896"/>
     <use style="fill:#ff0000;stroke:#000000;" x="355.9124594392041" xlink:href="#mcf45625995" y="191.29214492797848"/>
     <use style="fill:#ff0000;stroke:#000000;" x="227.83440679698742" xlink:href="#mcf45625995" y="227.89011428833007"/>
     <use style="fill:#ff0000;stroke:#000000;" x="438.20982974815433" xlink:href="#mcf45625995" y="190.7862574768066"/>
     <use style="fill:#ff0000;stroke:#000000;" x="615.8228127720811" xlink:href="#mcf45625995" y="192.43588760375974"/>
     <use style="fill:#ff0000;stroke:#000000;" x="329.43931233048454" xlink:href="#mcf45625995" y="192.4804440307617"/>
     <use style="fill:#ff0000;stroke:#000000;" x="366.0001677360503" xlink:href="#mcf45625995" y="191.04369598388672"/>
     <use style="fill:#ff0000;stroke:#000000;" x="741.3961045704673" xlink:href="#mcf45625995" y="192.93280197143554"/>
     <use style="fill:#ff0000;stroke:#000000;" x="199.45168907394066" xlink:href="#mcf45625995" y="258.76955411911007"/>
     <use style="fill:#ff0000;stroke:#000000;" x="455.18144204232993" xlink:href="#mcf45625995" y="190.91575744628904"/>
     <use style="fill:#ff0000;stroke:#000000;" x="239.90513516911358" xlink:href="#mcf45625995" y="217.9678202819824"/>
     <use style="fill:#ff0000;stroke:#000000;" x="270.89925524937104" xlink:href="#mcf45625995" y="202.1038082885742"/>
     <use style="fill:#ff0000;stroke:#000000;" x="739.5651875756262" xlink:href="#mcf45625995" y="192.93013229370115"/>
     <use style="fill:#ff0000;stroke:#000000;" x="503.59439498608134" xlink:href="#mcf45625995" y="191.40015151977536"/>
     <use style="fill:#ff0000;stroke:#000000;" x="711.2756001414632" xlink:href="#mcf45625995" y="192.87370651245115"/>
     <use style="fill:#ff0000;stroke:#000000;" x="459.71105130461217" xlink:href="#mcf45625995" y="190.95560897827147"/>
     <use style="fill:#ff0000;stroke:#000000;" x="447.7342992551399" xlink:href="#mcf45625995" y="190.85469268798826"/>
     <use style="fill:#ff0000;stroke:#000000;" x="543.7389690216473" xlink:href="#mcf45625995" y="191.8205680847168"/>
     <use style="fill:#ff0000;stroke:#000000;" x="429.1467347618699" xlink:href="#mcf45625995" y="190.73375381469725"/>
     <use style="fill:#ff0000;stroke:#000000;" x="460.493493441958" xlink:href="#mcf45625995" y="190.9626416015625"/>
     <use style="fill:#ff0000;stroke:#000000;" x="315.46437603475863" xlink:href="#mcf45625995" y="193.58938201904294"/>
     <use style="fill:#ff0000;stroke:#000000;" x="243.10396487589784" xlink:href="#mcf45625995" y="215.7246565246582"/>
     <use style="fill:#ff0000;stroke:#000000;" x="469.41772323548065" xlink:href="#mcf45625995" y="191.0464109802246"/>
     <use style="fill:#ff0000;stroke:#000000;" x="598.8096120286726" xlink:href="#mcf45625995" y="192.31230377197264"/>
     <use style="fill:#ff0000;stroke:#000000;" x="479.0200346085722" xlink:href="#mcf45625995" y="191.14191787719724"/>
     <use style="fill:#ff0000;stroke:#000000;" x="237.51396955597767" xlink:href="#mcf45625995" y="219.74927398681638"/>
     <use style="fill:#ff0000;stroke:#000000;" x="688.8214571231604" xlink:href="#mcf45625995" y="192.80723236083983"/>
     <use style="fill:#ff0000;stroke:#000000;" x="359.9534293131988" xlink:href="#mcf45625995" y="191.18221023559568"/>
     <use style="fill:#ff0000;stroke:#000000;" x="222.88222582635404" xlink:href="#mcf45625995" y="232.618974609375"/>
     <use style="fill:#ff0000;stroke:#000000;" x="255.96423845414134" xlink:href="#mcf45625995" y="208.22515686035155"/>
     <use style="fill:#ff0000;stroke:#000000;" x="279.1002208800537" xlink:href="#mcf45625995" y="199.65747711181638"/>
     <use style="fill:#ff0000;stroke:#000000;" x="488.4692714145343" xlink:href="#mcf45625995" y="191.23963302612304"/>
     <use style="fill:#ff0000;stroke:#000000;" x="526.9618157604997" xlink:href="#mcf45625995" y="191.64841506958007"/>
     <use style="fill:#ff0000;stroke:#000000;" x="409.90266888759965" xlink:href="#mcf45625995" y="190.67755874633787"/>
     <use style="fill:#ff0000;stroke:#000000;" x="335.06847129825303" xlink:href="#mcf45625995" y="192.14449722290038"/>
     <use style="fill:#ff0000;stroke:#000000;" x="296.1174907749401" xlink:href="#mcf45625995" y="196.0566586303711"/>
     <use style="fill:#ff0000;stroke:#000000;" x="237.45137568665666" xlink:href="#mcf45625995" y="219.7971221923828"/>
     <use style="fill:#ff0000;stroke:#000000;" x="601.0390338219212" xlink:href="#mcf45625995" y="192.3293064880371"/>
     <use style="fill:#ff0000;stroke:#000000;" x="616.7216204096926" xlink:href="#mcf45625995" y="192.4420262145996"/>
     <use style="fill:#ff0000;stroke:#000000;" x="639.9695758527242" xlink:href="#mcf45625995" y="192.5867738342285"/>
     <use style="fill:#ff0000;stroke:#000000;" x="713.4929619181796" xlink:href="#mcf45625995" y="192.87916122436522"/>
     <use style="fill:#ff0000;stroke:#000000;" x="270.93384817118914" xlink:href="#mcf45625995" y="202.09228912353512"/>
     <use style="fill:#ff0000;stroke:#000000;" x="543.7146507850741" xlink:href="#mcf45625995" y="191.82035385131834"/>
     <use style="fill:#ff0000;stroke:#000000;" x="261.48696880474614" xlink:href="#mcf45625995" y="205.67521911621094"/>
     <use style="fill:#ff0000;stroke:#000000;" x="308.8959648991202" xlink:href="#mcf45625995" y="194.2821057128906"/>
     <use style="fill:#ff0000;stroke:#000000;" x="225.69872963935413" xlink:href="#mcf45625995" y="229.88443771362304"/>
     <use style="fill:#ff0000;stroke:#000000;" x="326.8049980649653" xlink:href="#mcf45625995" y="192.65728546142577"/>
     <use style="fill:#ff0000;stroke:#000000;" x="468.6401163871254" xlink:href="#mcf45625995" y="191.03890045166014"/>
     <use style="fill:#ff0000;stroke:#000000;" x="541.3834465369637" xlink:href="#mcf45625995" y="191.79689941406247"/>
     <use style="fill:#ff0000;stroke:#000000;" x="277.5279819494258" xlink:href="#mcf45625995" y="200.08459259033202"/>
     <use style="fill:#ff0000;stroke:#000000;" x="439.5761863711022" xlink:href="#mcf45625995" y="190.79532531738278"/>
     <use style="fill:#ff0000;stroke:#000000;" x="685.7248286003783" xlink:href="#mcf45625995" y="192.7964176940918"/>
     <use style="fill:#ff0000;stroke:#000000;" x="660.988733829826" xlink:href="#mcf45625995" y="192.6950811767578"/>
     <use style="fill:#ff0000;stroke:#000000;" x="665.6238342013831" xlink:href="#mcf45625995" y="192.71615844726563"/>
    </g>
   </g>
   <g id="PathCollection_2">
    <defs>
     <path d="M 0 2.236068 
C 0.593012 2.236068 1.161816 2.000462 1.581139 1.581139 
C 2.000462 1.161816 2.236068 0.593012 2.236068 0 
C 2.236068 -0.593012 2.000462 -1.161816 1.581139 -1.581139 
C 1.161816 -2.000462 0.593012 -2.236068 0 -2.236068 
C -0.593012 -2.236068 -1.161816 -2.000462 -1.581139 -1.581139 
C -2.000462 -1.161816 -2.236068 -0.593012 -2.236068 0 
C -2.236068 0.593012 -2.000462 1.161816 -1.581139 1.581139 
C -1.161816 2.000462 -0.593012 2.236068 0 2.236068 
z
" id="m5bc924f12b" style="stroke:#000000;"/>
    </defs>
    <g clip-path="url(#p0c5796ade1)">
     <use style="fill:#0000ff;stroke:#000000;" x="637.0522313829592" xlink:href="#m5bc924f12b" y="388.6997470092773"/>
     <use style="fill:#0000ff;stroke:#000000;" x="581.8401178685326" xlink:href="#m5bc924f12b" y="393.0679165649414"/>
     <use style="fill:#0000ff;stroke:#000000;" x="455.80009625058426" xlink:href="#m5bc924f12b" y="231.50966789245604"/>
     <use style="fill:#0000ff;stroke:#000000;" x="223.52945427474356" xlink:href="#m5bc924f12b" y="222.22460494995116"/>
     <use style="fill:#0000ff;stroke:#000000;" x="627.2073927444783" xlink:href="#m5bc924f12b" y="393.66681427001953"/>
     <use style="fill:#0000ff;stroke:#000000;" x="727.2909414674048" xlink:href="#m5bc924f12b" y="289.8067819976807"/>
     <use style="fill:#0000ff;stroke:#000000;" x="410.2564132153809" xlink:href="#m5bc924f12b" y="170.6261572265625"/>
     <use style="fill:#0000ff;stroke:#000000;" x="249.35792384480763" xlink:href="#m5bc924f12b" y="186.15194824218747"/>
     <use style="fill:#0000ff;stroke:#000000;" x="312.5987384717992" xlink:href="#m5bc924f12b" y="122.74595672607421"/>
     <use style="fill:#0000ff;stroke:#000000;" x="319.7926799627146" xlink:href="#m5bc924f12b" y="120.44257690429686"/>
     <use style="fill:#0000ff;stroke:#000000;" x="381.2511894904857" xlink:href="#m5bc924f12b" y="141.8940719604492"/>
     <use style="fill:#0000ff;stroke:#000000;" x="509.10094486673165" xlink:href="#m5bc924f12b" y="315.0035897827148"/>
     <use style="fill:#0000ff;stroke:#000000;" x="279.72224188002303" xlink:href="#m5bc924f12b" y="147.63143188476562"/>
     <use style="fill:#0000ff;stroke:#000000;" x="461.59922665561146" xlink:href="#m5bc924f12b" y="240.32513534545896"/>
     <use style="fill:#0000ff;stroke:#000000;" x="692.6305480485967" xlink:href="#m5bc924f12b" y="335.3122567749023"/>
     <use style="fill:#0000ff;stroke:#000000;" x="592.296213067314" xlink:href="#m5bc924f12b" y="396.7982803344727"/>
     <use style="fill:#0000ff;stroke:#000000;" x="376.1724019708007" xlink:href="#m5bc924f12b" y="137.85034240722655"/>
     <use style="fill:#0000ff;stroke:#000000;" x="686.1474314404172" xlink:href="#m5bc924f12b" y="343.19873199462893"/>
     <use style="fill:#0000ff;stroke:#000000;" x="704.0956936439884" xlink:href="#m5bc924f12b" y="320.73502532958986"/>
     <use style="fill:#0000ff;stroke:#000000;" x="332.05276729150927" xlink:href="#m5bc924f12b" y="119.14443786621092"/>
     <use style="fill:#0000ff;stroke:#000000;" x="334.50823714046606" xlink:href="#m5bc924f12b" y="119.26750671386716"/>
     <use style="fill:#0000ff;stroke:#000000;" x="276.6902430236143" xlink:href="#m5bc924f12b" y="150.9803695678711"/>
     <use style="fill:#0000ff;stroke:#000000;" x="625.3964309213397" xlink:href="#m5bc924f12b" y="394.39621307373045"/>
     <use style="fill:#0000ff;stroke:#000000;" x="559.2429699933566" xlink:href="#m5bc924f12b" y="377.74637237548825"/>
     <use style="fill:#0000ff;stroke:#000000;" x="660.5513550611639" xlink:href="#m5bc924f12b" y="370.66165740966795"/>
     <use style="fill:#0000ff;stroke:#000000;" x="684.8046863481734" xlink:href="#m5bc924f12b" y="344.79332061767576"/>
     <use style="fill:#0000ff;stroke:#000000;" x="457.0076136759041" xlink:href="#m5bc924f12b" y="233.33035926818846"/>
     <use style="fill:#0000ff;stroke:#000000;" x="514.8387763560681" xlink:href="#m5bc924f12b" y="323.6075491333008"/>
     <use style="fill:#0000ff;stroke:#000000;" x="423.2405008285092" xlink:href="#m5bc924f12b" y="186.2268145751953"/>
     <use style="fill:#0000ff;stroke:#000000;" x="419.85359276911106" xlink:href="#m5bc924f12b" y="182.00843536376954"/>
     <use style="fill:#0000ff;stroke:#000000;" x="276.67911217478763" xlink:href="#m5bc924f12b" y="150.99291046142577"/>
     <use style="fill:#0000ff;stroke:#000000;" x="740.1119107853756" xlink:href="#m5bc924f12b" y="272.50984725952145"/>
     <use style="fill:#0000ff;stroke:#000000;" x="462.4965467612628" xlink:href="#m5bc924f12b" y="241.7044152832031"/>
     <use style="fill:#0000ff;stroke:#000000;" x="394.5356487732431" xlink:href="#m5bc924f12b" y="153.92733947753905"/>
     <use style="fill:#0000ff;stroke:#000000;" x="707.7126966371936" xlink:href="#m5bc924f12b" y="316.0064410400391"/>
     <use style="fill:#0000ff;stroke:#000000;" x="555.0072640496536" xlink:href="#m5bc924f12b" y="373.83032592773435"/>
     <use style="fill:#0000ff;stroke:#000000;" x="209.2471603811564" xlink:href="#m5bc924f12b" y="241.18799949645995"/>
     <use style="fill:#0000ff;stroke:#000000;" x="603.1152111170078" xlink:href="#m5bc924f12b" y="398.3625219726563"/>
     <use style="fill:#0000ff;stroke:#000000;" x="414.8781091233175" xlink:href="#m5bc924f12b" y="176.00015258789062"/>
     <use style="fill:#0000ff;stroke:#000000;" x="615.069864992194" xlink:href="#m5bc924f12b" y="397.4089938354492"/>
     <use style="fill:#0000ff;stroke:#000000;" x="484.9934809493495" xlink:href="#m5bc924f12b" y="277.1560711669922"/>
     <use style="fill:#0000ff;stroke:#000000;" x="644.2411089551573" xlink:href="#m5bc924f12b" y="384.05556243896484"/>
     <use style="fill:#0000ff;stroke:#000000;" x="503.32324225324606" xlink:href="#m5bc924f12b" y="306.1277105712891"/>
     <use style="fill:#0000ff;stroke:#000000;" x="406.73975900602454" xlink:href="#m5bc924f12b" y="166.67440795898438"/>
     <use style="fill:#0000ff;stroke:#000000;" x="200.26194013593576" xlink:href="#m5bc924f12b" y="252.41390991210938"/>
     <use style="fill:#0000ff;stroke:#000000;" x="294.4201156736069" xlink:href="#m5bc924f12b" y="133.7257974243164"/>
     <use style="fill:#0000ff;stroke:#000000;" x="440.2954740825453" xlink:href="#m5bc924f12b" y="208.95189422607422"/>
     <use style="fill:#0000ff;stroke:#000000;" x="355.9124594392041" xlink:href="#m5bc924f12b" y="125.24497283935546"/>
     <use style="fill:#0000ff;stroke:#000000;" x="227.83440679698742" xlink:href="#m5bc924f12b" y="216.2995147705078"/>
     <use style="fill:#0000ff;stroke:#000000;" x="438.20982974815433" xlink:href="#m5bc924f12b" y="206.0470211791992"/>
     <use style="fill:#0000ff;stroke:#000000;" x="615.8228127720811" xlink:href="#m5bc924f12b" y="397.256575012207"/>
     <use style="fill:#0000ff;stroke:#000000;" x="329.43931233048454" xlink:href="#m5bc924f12b" y="119.15088134765622"/>
     <use style="fill:#0000ff;stroke:#000000;" x="366.0001677360503" xlink:href="#m5bc924f12b" y="130.77505371093747"/>
     <use style="fill:#0000ff;stroke:#000000;" x="741.3961045704673" xlink:href="#m5bc924f12b" y="270.7865867614746"/>
     <use style="fill:#0000ff;stroke:#000000;" x="199.45168907394066" xlink:href="#m5bc924f12b" y="253.39552734375"/>
     <use style="fill:#0000ff;stroke:#000000;" x="455.18144204232993" xlink:href="#m5bc924f12b" y="230.58009475708008"/>
     <use style="fill:#0000ff;stroke:#000000;" x="239.90513516911358" xlink:href="#m5bc924f12b" y="199.4031491088867"/>
     <use style="fill:#0000ff;stroke:#000000;" x="270.89925524937104" xlink:href="#m5bc924f12b" y="157.76179595947264"/>
     <use style="fill:#0000ff;stroke:#000000;" x="739.5651875756262" xlink:href="#m5bc924f12b" y="273.2443238067627"/>
     <use style="fill:#0000ff;stroke:#000000;" x="503.59439498608134" xlink:href="#m5bc924f12b" y="306.54828369140625"/>
     <use style="fill:#0000ff;stroke:#000000;" x="711.2756001414632" xlink:href="#m5bc924f12b" y="311.30253479003903"/>
     <use style="fill:#0000ff;stroke:#000000;" x="459.71105130461217" xlink:href="#m5bc924f12b" y="237.43552848815918"/>
     <use style="fill:#0000ff;stroke:#000000;" x="447.7342992551399" xlink:href="#m5bc924f12b" y="219.5733554077148"/>
     <use style="fill:#0000ff;stroke:#000000;" x="543.7389690216473" xlink:href="#m5bc924f12b" y="361.9603866577148"/>
     <use style="fill:#0000ff;stroke:#000000;" x="429.1467347618699" xlink:href="#m5bc924f12b" y="193.82351440429687"/>
     <use style="fill:#0000ff;stroke:#000000;" x="460.493493441958" xlink:href="#m5bc924f12b" y="238.6308251953125"/>
     <use style="fill:#0000ff;stroke:#000000;" x="315.46437603475863" xlink:href="#m5bc924f12b" y="121.68912689208983"/>
     <use style="fill:#0000ff;stroke:#000000;" x="243.10396487589784" xlink:href="#m5bc924f12b" y="194.90314361572263"/>
     <use style="fill:#0000ff;stroke:#000000;" x="469.41772323548065" xlink:href="#m5bc924f12b" y="252.45999687194822"/>
     <use style="fill:#0000ff;stroke:#000000;" x="598.8096120286726" xlink:href="#m5bc924f12b" y="398.01927062988284"/>
     <use style="fill:#0000ff;stroke:#000000;" x="479.0200346085722" xlink:href="#m5bc924f12b" y="267.63758754730225"/>
     <use style="fill:#0000ff;stroke:#000000;" x="237.51396955597767" xlink:href="#m5bc924f12b" y="202.76791534423828"/>
     <use style="fill:#0000ff;stroke:#000000;" x="688.8214571231604" xlink:href="#m5bc924f12b" y="339.9820669555664"/>
     <use style="fill:#0000ff;stroke:#000000;" x="359.9534293131988" xlink:href="#m5bc924f12b" y="127.27114288330077"/>
     <use style="fill:#0000ff;stroke:#000000;" x="222.88222582635404" xlink:href="#m5bc924f12b" y="223.10853607177734"/>
     <use style="fill:#0000ff;stroke:#000000;" x="255.96423845414134" xlink:href="#m5bc924f12b" y="177.06528808593748"/>
     <use style="fill:#0000ff;stroke:#000000;" x="279.1002208800537" xlink:href="#m5bc924f12b" y="148.30638244628904"/>
     <use style="fill:#0000ff;stroke:#000000;" x="488.4692714145343" xlink:href="#m5bc924f12b" y="282.6976650238037"/>
     <use style="fill:#0000ff;stroke:#000000;" x="526.9618157604997" xlink:href="#m5bc924f12b" y="340.8639175415039"/>
     <use style="fill:#0000ff;stroke:#000000;" x="409.90266888759965" xlink:href="#m5bc924f12b" y="170.22317596435545"/>
     <use style="fill:#0000ff;stroke:#000000;" x="335.06847129825303" xlink:href="#m5bc924f12b" y="119.3128088378906"/>
     <use style="fill:#0000ff;stroke:#000000;" x="296.1174907749401" xlink:href="#m5bc924f12b" y="132.39508666992185"/>
     <use style="fill:#0000ff;stroke:#000000;" x="237.45137568665666" xlink:href="#m5bc924f12b" y="202.8559158325195"/>
     <use style="fill:#0000ff;stroke:#000000;" x="601.0390338219212" xlink:href="#m5bc924f12b" y="398.24296325683594"/>
     <use style="fill:#0000ff;stroke:#000000;" x="616.7216204096926" xlink:href="#m5bc924f12b" y="397.0606997680664"/>
     <use style="fill:#0000ff;stroke:#000000;" x="639.9695758527242" xlink:href="#m5bc924f12b" y="386.91482025146485"/>
     <use style="fill:#0000ff;stroke:#000000;" x="713.4929619181796" xlink:href="#m5bc924f12b" y="308.3556802368164"/>
     <use style="fill:#0000ff;stroke:#000000;" x="270.93384817118914" xlink:href="#m5bc924f12b" y="157.71985565185545"/>
     <use style="fill:#0000ff;stroke:#000000;" x="543.7146507850741" xlink:href="#m5bc924f12b" y="361.9326351928711"/>
     <use style="fill:#0000ff;stroke:#000000;" x="261.48696880474614" xlink:href="#m5bc924f12b" y="169.68036621093748"/>
     <use style="fill:#0000ff;stroke:#000000;" x="308.8959648991202" xlink:href="#m5bc924f12b" y="124.38581451416013"/>
     <use style="fill:#0000ff;stroke:#000000;" x="225.69872963935413" xlink:href="#m5bc924f12b" y="219.2484210205078"/>
     <use style="fill:#0000ff;stroke:#000000;" x="326.8049980649653" xlink:href="#m5bc924f12b" y="119.30348144531249"/>
     <use style="fill:#0000ff;stroke:#000000;" x="468.6401163871254" xlink:href="#m5bc924f12b" y="251.24231689453123"/>
     <use style="fill:#0000ff;stroke:#000000;" x="541.3834465369637" xlink:href="#m5bc924f12b" y="359.2294711303711"/>
     <use style="fill:#0000ff;stroke:#000000;" x="277.5279819494258" xlink:href="#m5bc924f12b" y="150.04041229248045"/>
     <use style="fill:#0000ff;stroke:#000000;" x="439.5761863711022" xlink:href="#m5bc924f12b" y="207.9463980102539"/>
     <use style="fill:#0000ff;stroke:#000000;" x="685.7248286003783" xlink:href="#m5bc924f12b" y="343.7020651245117"/>
     <use style="fill:#0000ff;stroke:#000000;" x="660.988733829826" xlink:href="#m5bc924f12b" y="370.2528176879883"/>
     <use style="fill:#0000ff;stroke:#000000;" x="665.6238342013831" xlink:href="#m5bc924f12b" y="365.7757516479492"/>
    </g>
   </g>
   <g id="PathCollection_3">
    <defs>
     <path d="M 0 2.236068 
C 0.593012 2.236068 1.161816 2.000462 1.581139 1.581139 
C 2.000462 1.161816 2.236068 0.593012 2.236068 0 
C 2.236068 -0.593012 2.000462 -1.161816 1.581139 -1.581139 
C 1.161816 -2.000462 0.593012 -2.236068 0 -2.236068 
C -0.593012 -2.236068 -1.161816 -2.000462 -1.581139 -1.581139 
C -2.000462 -1.161816 -2.236068 -0.593012 -2.236068 0 
C -2.236068 0.593012 -2.000462 1.161816 -1.581139 1.581139 
C -1.161816 2.000462 -0.593012 2.236068 0 2.236068 
z
" id="m5dd5fe3238" style="stroke:#000000;"/>
    </defs>
    <g clip-path="url(#p0c5796ade1)">
     <use style="stroke:#000000;" x="637.0522313829592" xlink:href="#m5dd5fe3238" y="356.9507116699219"/>
     <use style="stroke:#000000;" x="581.8401178685326" xlink:href="#m5dd5fe3238" y="334.0080285644531"/>
     <use style="stroke:#000000;" x="455.80009625058426" xlink:href="#m5dd5fe3238" y="247.56725212097166"/>
     <use style="stroke:#000000;" x="223.52945427474356" xlink:href="#m5dd5fe3238" y="220.08904403686523"/>
     <use style="stroke:#000000;" x="627.2073927444783" xlink:href="#m5dd5fe3238" y="353.37673828125"/>
     <use style="stroke:#000000;" x="727.2909414674048" xlink:href="#m5dd5fe3238" y="381.7400866699219"/>
     <use style="stroke:#000000;" x="410.2564132153809" xlink:href="#m5dd5fe3238" y="204.39989593505857"/>
     <use style="stroke:#000000;" x="249.35792384480763" xlink:href="#m5dd5fe3238" y="164.19246459960937"/>
     <use style="stroke:#000000;" x="312.5987384717992" xlink:href="#m5dd5fe3238" y="127.03147338867186"/>
     <use style="stroke:#000000;" x="319.7926799627146" xlink:href="#m5dd5fe3238" y="129.6809143066406"/>
     <use style="stroke:#000000;" x="381.2511894904857" xlink:href="#m5dd5fe3238" y="176.17864196777342"/>
     <use style="stroke:#000000;" x="509.10094486673165" xlink:href="#m5dd5fe3238" y="290.6593629455566"/>
     <use style="stroke:#000000;" x="279.72224188002303" xlink:href="#m5dd5fe3238" y="129.6917578125"/>
     <use style="stroke:#000000;" x="461.59922665561146" xlink:href="#m5dd5fe3238" y="252.71084461212158"/>
     <use style="stroke:#000000;" x="692.6305480485967" xlink:href="#m5dd5fe3238" y="373.709448852539"/>
     <use style="stroke:#000000;" x="592.296213067314" xlink:href="#m5dd5fe3238" y="338.9294888305664"/>
     <use style="stroke:#000000;" x="376.1724019708007" xlink:href="#m5dd5fe3238" y="171.39471130371092"/>
     <use style="stroke:#000000;" x="686.1474314404172" xlink:href="#m5dd5fe3238" y="372.02092712402344"/>
     <use style="stroke:#000000;" x="704.0956936439884" xlink:href="#m5dd5fe3238" y="376.5450421142578"/>
     <use style="stroke:#000000;" x="332.05276729150927" xlink:href="#m5dd5fe3238" y="136.05762084960935"/>
     <use style="stroke:#000000;" x="334.50823714046606" xlink:href="#m5dd5fe3238" y="137.57585998535154"/>
     <use style="stroke:#000000;" x="276.6902430236143" xlink:href="#m5dd5fe3238" y="131.52640319824218"/>
     <use style="stroke:#000000;" x="625.3964309213397" xlink:href="#m5dd5fe3238" y="352.6968438720703"/>
     <use style="stroke:#000000;" x="559.2429699933566" xlink:href="#m5dd5fe3238" y="322.3241221618652"/>
     <use style="stroke:#000000;" x="660.5513550611639" xlink:href="#m5dd5fe3238" y="364.69975616455076"/>
     <use style="stroke:#000000;" x="684.8046863481734" xlink:href="#m5dd5fe3238" y="371.66325622558594"/>
     <use style="stroke:#000000;" x="457.0076136759041" xlink:href="#m5dd5fe3238" y="248.64654556274414"/>
     <use style="stroke:#000000;" x="514.8387763560681" xlink:href="#m5dd5fe3238" y="294.71301727294923"/>
     <use style="stroke:#000000;" x="423.2405008285092" xlink:href="#m5dd5fe3238" y="217.073849029541"/>
     <use style="stroke:#000000;" x="419.85359276911106" xlink:href="#m5dd5fe3238" y="213.78398620605466"/>
     <use style="stroke:#000000;" x="276.67911217478763" xlink:href="#m5dd5fe3238" y="131.53372009277342"/>
     <use style="stroke:#000000;" x="740.1119107853756" xlink:href="#m5dd5fe3238" y="384.32859466552736"/>
     <use style="stroke:#000000;" x="462.4965467612628" xlink:href="#m5dd5fe3238" y="253.49755445480346"/>
     <use style="stroke:#000000;" x="394.5356487732431" xlink:href="#m5dd5fe3238" y="188.98980743408202"/>
     <use style="stroke:#000000;" x="707.7126966371936" xlink:href="#m5dd5fe3238" y="377.4013989257812"/>
     <use style="stroke:#000000;" x="555.0072640496536" xlink:href="#m5dd5fe3238" y="319.9653218078613"/>
     <use style="stroke:#000000;" x="209.2471603811564" xlink:href="#m5dd5fe3238" y="254.3748968696594"/>
     <use style="stroke:#000000;" x="603.1152111170078" xlink:href="#m5dd5fe3238" y="343.72126373291013"/>
     <use style="stroke:#000000;" x="414.8781091233175" xlink:href="#m5dd5fe3238" y="208.92799072265623"/>
     <use style="stroke:#000000;" x="615.069864992194" xlink:href="#m5dd5fe3238" y="348.68037963867187"/>
     <use style="stroke:#000000;" x="484.9934809493495" xlink:href="#m5dd5fe3238" y="272.36728420257566"/>
     <use style="stroke:#000000;" x="644.2411089551573" xlink:href="#m5dd5fe3238" y="359.4344677734375"/>
     <use style="stroke:#000000;" x="503.32324225324606" xlink:href="#m5dd5fe3238" y="286.46116287231445"/>
     <use style="stroke:#000000;" x="406.73975900602454" xlink:href="#m5dd5fe3238" y="200.94851348876952"/>
     <use style="stroke:#000000;" x="200.26194013593576" xlink:href="#m5dd5fe3238" y="274.17522354125975"/>
     <use style="stroke:#000000;" x="294.4201156736069" xlink:href="#m5dd5fe3238" y="124.99986511230466"/>
     <use style="stroke:#000000;" x="440.2954740825453" xlink:href="#m5dd5fe3238" y="233.35006462097166"/>
     <use style="stroke:#000000;" x="355.9124594392041" xlink:href="#m5dd5fe3238" y="153.41462951660156"/>
     <use style="stroke:#000000;" x="227.83440679698742" xlink:href="#m5dd5fe3238" y="209.72708541870117"/>
     <use style="stroke:#000000;" x="438.20982974815433" xlink:href="#m5dd5fe3238" y="231.39117416381833"/>
     <use style="stroke:#000000;" x="615.8228127720811" xlink:href="#m5dd5fe3238" y="348.98139404296876"/>
     <use style="stroke:#000000;" x="329.43931233048454" xlink:href="#m5dd5fe3238" y="134.52395690917967"/>
     <use style="stroke:#000000;" x="366.0001677360503" xlink:href="#m5dd5fe3238" y="162.10499908447264"/>
     <use style="stroke:#000000;" x="741.3961045704673" xlink:href="#m5dd5fe3238" y="384.57750915527345"/>
     <use style="stroke:#000000;" x="199.45168907394066" xlink:href="#m5dd5fe3238" y="275.8470154953003"/>
     <use style="stroke:#000000;" x="455.18144204232993" xlink:href="#m5dd5fe3238" y="247.0126203918457"/>
     <use style="stroke:#000000;" x="239.90513516911358" xlink:href="#m5dd5fe3238" y="182.45480712890622"/>
     <use style="stroke:#000000;" x="270.89925524937104" xlink:href="#m5dd5fe3238" y="135.9571124267578"/>
     <use style="stroke:#000000;" x="739.5651875756262" xlink:href="#m5dd5fe3238" y="384.2220135498047"/>
     <use style="stroke:#000000;" x="503.59439498608134" xlink:href="#m5dd5fe3238" y="286.6607872009277"/>
     <use style="stroke:#000000;" x="711.2756001414632" xlink:href="#m5dd5fe3238" y="378.2276971435547"/>
     <use style="stroke:#000000;" x="459.71105130461217" xlink:href="#m5dd5fe3238" y="251.04723112106322"/>
     <use style="stroke:#000000;" x="447.7342992551399" xlink:href="#m5dd5fe3238" y="240.25099617004395"/>
     <use style="stroke:#000000;" x="543.7389690216473" xlink:href="#m5dd5fe3238" y="313.4169772338867"/>
     <use style="stroke:#000000;" x="429.1467347618699" xlink:href="#m5dd5fe3238" y="222.77139862060545"/>
     <use style="stroke:#000000;" x="460.493493441958" xlink:href="#m5dd5fe3238" y="251.73792217254638"/>
     <use style="stroke:#000000;" x="315.46437603475863" xlink:href="#m5dd5fe3238" y="127.97857452392577"/>
     <use style="stroke:#000000;" x="243.10396487589784" xlink:href="#m5dd5fe3238" y="175.912737121582"/>
     <use style="stroke:#000000;" x="469.41772323548065" xlink:href="#m5dd5fe3238" y="259.48047464847565"/>
     <use style="stroke:#000000;" x="598.8096120286726" xlink:href="#m5dd5fe3238" y="341.8498773193359"/>
     <use style="stroke:#000000;" x="479.0200346085722" xlink:href="#m5dd5fe3238" y="267.52196382522584"/>
     <use style="stroke:#000000;" x="237.51396955597767" xlink:href="#m5dd5fe3238" y="187.56140625"/>
     <use style="stroke:#000000;" x="688.8214571231604" xlink:href="#m5dd5fe3238" y="372.72504638671876"/>
     <use style="stroke:#000000;" x="359.9534293131988" xlink:href="#m5dd5fe3238" y="156.82211059570312"/>
     <use style="stroke:#000000;" x="222.88222582635404" xlink:href="#m5dd5fe3238" y="221.65965499877927"/>
     <use style="stroke:#000000;" x="255.96423845414134" xlink:href="#m5dd5fe3238" y="153.49633483886717"/>
     <use style="stroke:#000000;" x="279.1002208800537" xlink:href="#m5dd5fe3238" y="130.04197174072263"/>
     <use style="stroke:#000000;" x="488.4692714145343" xlink:href="#m5dd5fe3238" y="275.1300463485718"/>
     <use style="stroke:#000000;" x="526.9618157604997" xlink:href="#m5dd5fe3238" y="302.9025874328613"/>
     <use style="stroke:#000000;" x="409.90266888759965" xlink:href="#m5dd5fe3238" y="204.05287490844725"/>
     <use style="stroke:#000000;" x="335.06847129825303" xlink:href="#m5dd5fe3238" y="137.93231140136717"/>
     <use style="stroke:#000000;" x="296.1174907749401" xlink:href="#m5dd5fe3238" y="124.85988006591793"/>
     <use style="stroke:#000000;" x="237.45137568665666" xlink:href="#m5dd5fe3238" y="187.69740325927734"/>
     <use style="stroke:#000000;" x="601.0390338219212" xlink:href="#m5dd5fe3238" y="342.82465576171876"/>
     <use style="stroke:#000000;" x="616.7216204096926" xlink:href="#m5dd5fe3238" y="349.3390814208984"/>
     <use style="stroke:#000000;" x="639.9695758527242" xlink:href="#m5dd5fe3238" y="357.97113830566406"/>
     <use style="stroke:#000000;" x="713.4929619181796" xlink:href="#m5dd5fe3238" y="378.73347747802734"/>
     <use style="stroke:#000000;" x="270.93384817118914" xlink:href="#m5dd5fe3238" y="135.92687255859374"/>
     <use style="stroke:#000000;" x="543.7146507850741" xlink:href="#m5dd5fe3238" y="313.40240112304684"/>
     <use style="stroke:#000000;" x="261.48696880474614" xlink:href="#m5dd5fe3238" y="145.94386596679686"/>
     <use style="stroke:#000000;" x="308.8959648991202" xlink:href="#m5dd5fe3238" y="126.03647460937498"/>
     <use style="stroke:#000000;" x="225.69872963935413" xlink:href="#m5dd5fe3238" y="214.84509658813477"/>
     <use style="stroke:#000000;" x="326.8049980649653" xlink:href="#m5dd5fe3238" y="133.06881774902342"/>
     <use style="stroke:#000000;" x="468.6401163871254" xlink:href="#m5dd5fe3238" y="258.81594324588775"/>
     <use style="stroke:#000000;" x="541.3834465369637" xlink:href="#m5dd5fe3238" y="311.9967622375488"/>
     <use style="stroke:#000000;" x="277.5279819494258" xlink:href="#m5dd5fe3238" y="130.9871694946289"/>
     <use style="stroke:#000000;" x="439.5761863711022" xlink:href="#m5dd5fe3238" y="232.67563110351563"/>
     <use style="stroke:#000000;" x="685.7248286003783" xlink:href="#m5dd5fe3238" y="371.90870178222656"/>
     <use style="stroke:#000000;" x="660.988733829826" xlink:href="#m5dd5fe3238" y="364.83415466308594"/>
     <use style="stroke:#000000;" x="665.6238342013831" xlink:href="#m5dd5fe3238" y="366.23818267822264"/>
    </g>
   </g>
   <g id="line2d_1">
    <path clip-path="url(#p0c5796ade1)" d="M 199.088437 259.2 
L 216.600959 231.537516 
L 226.451753 216.398726 
L 234.113481 204.994006 
L 241.775209 194.01013 
L 248.342405 184.99508 
L 254.909601 176.403368 
L 260.382264 169.602432 
L 265.854927 163.156515 
L 271.32759 157.091159 
L 275.70572 152.52908 
L 280.083851 148.237542 
L 284.461981 144.227429 
L 288.840112 140.508912 
L 293.218242 137.091422 
L 297.596373 133.983625 
L 301.974503 131.193405 
L 306.352633 128.727838 
L 310.730764 126.593177 
L 314.014362 125.212626 
L 317.29796 124.023244 
L 320.581557 123.026725 
L 323.865155 122.224492 
L 327.148753 121.61769 
L 330.432351 121.207184 
L 333.715949 120.99356 
L 336.999547 120.977123 
L 340.283144 121.157896 
L 343.566742 121.535621 
L 346.85034 122.10976 
L 350.133938 122.879493 
L 353.417536 123.843722 
L 356.701134 125.001071 
L 359.984731 126.34989 
L 363.268329 127.888253 
L 367.64646 130.230418 
L 372.02459 132.899679 
L 376.402721 135.889265 
L 380.780851 139.191594 
L 385.158982 142.798291 
L 389.537112 146.700208 
L 393.915242 150.887449 
L 398.293373 155.349395 
L 403.766036 161.295826 
L 409.238699 167.63019 
L 414.711362 174.327387 
L 420.184025 181.360881 
L 426.751221 190.205659 
L 433.318416 199.444048 
L 440.980145 210.649226 
L 449.736406 223.911488 
L 459.587199 239.252332 
L 478.194254 268.765959 
L 491.328645 289.415575 
L 501.179438 304.476178 
L 508.841167 315.79807 
L 515.408362 325.156053 
L 521.975558 334.137758 
L 527.448221 341.298039 
L 532.920884 348.133016 
L 538.393547 354.615608 
L 543.86621 360.720128 
L 548.244341 365.315225 
L 552.622471 369.64119 
L 557.000602 373.687052 
L 561.378732 377.44255 
L 565.756862 380.898158 
L 570.134993 384.045114 
L 574.513123 386.875435 
L 578.891254 389.381942 
L 583.269384 391.55828 
L 586.552982 392.970508 
L 589.83658 394.191877 
L 593.120178 395.220646 
L 596.403776 396.055347 
L 599.687373 396.694788 
L 602.970971 397.138058 
L 606.254569 397.384525 
L 609.538167 397.433836 
L 612.821765 397.285921 
L 616.105363 396.940991 
L 619.38896 396.399538 
L 622.672558 395.662336 
L 625.956156 394.730435 
L 629.239754 393.605165 
L 632.523352 392.288132 
L 635.80695 390.781214 
L 639.090547 389.086563 
L 643.468678 386.539214 
L 647.846808 383.668904 
L 652.224939 380.482914 
L 656.603069 376.989324 
L 660.9812 373.196995 
L 665.35933 369.115544 
L 669.737461 364.755323 
L 674.115591 360.127391 
L 679.588254 353.98395 
L 685.060917 347.46494 
L 690.53358 340.596191 
L 696.006243 333.40492 
L 702.573439 324.38987 
L 709.140635 315.002912 
L 716.802363 303.652961 
L 725.558624 290.264254 
L 736.50395 273.101713 
L 745.260211 259.2 
L 745.260211 259.2 
" style="fill:none;stroke:#008000;stroke-linecap:square;"/>
   </g>
   <g id="patch_3">
    <path d="M 112.1625 466.56 
L 112.1625 51.84 
" style="fill:none;stroke:#000000;stroke-linecap:square;stroke-linejoin:miter;"/>
   </g>
   <g id="patch_4">
    <path d="M 112.1625 51.84 
L 807.57 51.84 
" style="fill:none;stroke:#000000;stroke-linecap:square;stroke-linejoin:miter;"/>
   </g>
   <g id="patch_5">
    <path d="M 807.57 466.56 
L 807.57 51.84 
" style="fill:none;stroke:#000000;stroke-linecap:square;stroke-linejoin:miter;"/>
   </g>
   <g id="patch_6">
    <path d="M 112.1625 466.56 
L 807.57 466.56 
" style="fill:none;stroke:#000000;stroke-linecap:square;stroke-linejoin:miter;"/>
   </g>
   <g id="matplotlib.axis_1">
    <g id="xtick_1">
     <g id="line2d_2">
      <defs>
       <path d="M 0 0 
L 0 -4 
" id="m1c7787994f" style="stroke:#000000;stroke-width:0.5;"/>
      </defs>
      <g>
       <use style="stroke:#000000;stroke-width:0.5;" x="112.1625" xlink:href="#m1c7787994f" y="466.56"/>
      </g>
     </g>
     <g id="line2d_3">
      <defs>
       <path d="M 0 0 
L 0 4 
" id="mfbd9eb8cb0" style="stroke:#000000;stroke-width:0.5;"/>
      </defs>
      <g>
       <use style="stroke:#000000;stroke-width:0.5;" x="112.1625" xlink:href="#mfbd9eb8cb0" y="51.839999999999975"/>
      </g>
     </g>
     <g id="text_1">
      <!-- −1 -->
      <defs>
       <path d="M 12.40625 8.296875 
L 28.515625 8.296875 
L 28.515625 63.921875 
L 10.984375 60.40625 
L 10.984375 69.390625 
L 28.421875 72.90625 
L 38.28125 72.90625 
L 38.28125 8.296875 
L 54.390625 8.296875 
L 54.390625 0 
L 12.40625 0 
z
" id="BitstreamVeraSans-Roman-31"/>
       <path d="M 10.59375 35.5 
L 73.1875 35.5 
L 73.1875 27.203125 
L 10.59375 27.203125 
z
" id="BitstreamVeraSans-Roman-2212"/>
      </defs>
      <g transform="translate(103.31718749999999 479.67812499999997)scale(0.12 -0.12)">
       <use xlink:href="#BitstreamVeraSans-Roman-2212"/>
       <use x="83.7890625" xlink:href="#BitstreamVeraSans-Roman-31"/>
      </g>
     </g>
    </g>
    <g id="xtick_2">
     <g id="line2d_4">
      <g>
       <use style="stroke:#000000;stroke-width:0.5;" x="199.0884375" xlink:href="#m1c7787994f" y="466.56"/>
      </g>
     </g>
     <g id="line2d_5">
      <g>
       <use style="stroke:#000000;stroke-width:0.5;" x="199.0884375" xlink:href="#mfbd9eb8cb0" y="51.839999999999975"/>
      </g>
     </g>
     <g id="text_2">
      <!-- 0 -->
      <defs>
       <path d="M 31.78125 66.40625 
Q 24.171875 66.40625 20.328125 58.90625 
Q 16.5 51.421875 16.5 36.375 
Q 16.5 21.390625 20.328125 13.890625 
Q 24.171875 6.390625 31.78125 6.390625 
Q 39.453125 6.390625 43.28125 13.890625 
Q 47.125 21.390625 47.125 36.375 
Q 47.125 51.421875 43.28125 58.90625 
Q 39.453125 66.40625 31.78125 66.40625 
M 31.78125 74.21875 
Q 44.046875 74.21875 50.515625 64.515625 
Q 56.984375 54.828125 56.984375 36.375 
Q 56.984375 17.96875 50.515625 8.265625 
Q 44.046875 -1.421875 31.78125 -1.421875 
Q 19.53125 -1.421875 13.0625 8.265625 
Q 6.59375 17.96875 6.59375 36.375 
Q 6.59375 54.828125 13.0625 64.515625 
Q 19.53125 74.21875 31.78125 74.21875 
" id="BitstreamVeraSans-Roman-30"/>
      </defs>
      <g transform="translate(195.2709375 479.67812499999997)scale(0.12 -0.12)">
       <use xlink:href="#BitstreamVeraSans-Roman-30"/>
      </g>
     </g>
    </g>
    <g id="xtick_3">
     <g id="line2d_6">
      <g>
       <use style="stroke:#000000;stroke-width:0.5;" x="286.014375" xlink:href="#m1c7787994f" y="466.56"/>
      </g>
     </g>
     <g id="line2d_7">
      <g>
       <use style="stroke:#000000;stroke-width:0.5;" x="286.014375" xlink:href="#mfbd9eb8cb0" y="51.839999999999975"/>
      </g>
     </g>
     <g id="text_3">
      <!-- 1 -->
      <g transform="translate(282.196875 479.67812499999997)scale(0.12 -0.12)">
       <use xlink:href="#BitstreamVeraSans-Roman-31"/>
      </g>
     </g>
    </g>
    <g id="xtick_4">
     <g id="line2d_8">
      <g>
       <use style="stroke:#000000;stroke-width:0.5;" x="372.9403125" xlink:href="#m1c7787994f" y="466.56"/>
      </g>
     </g>
     <g id="line2d_9">
      <g>
       <use style="stroke:#000000;stroke-width:0.5;" x="372.9403125" xlink:href="#mfbd9eb8cb0" y="51.839999999999975"/>
      </g>
     </g>
     <g id="text_4">
      <!-- 2 -->
      <defs>
       <path d="M 19.1875 8.296875 
L 53.609375 8.296875 
L 53.609375 0 
L 7.328125 0 
L 7.328125 8.296875 
Q 12.9375 14.109375 22.625 23.890625 
Q 32.328125 33.6875 34.8125 36.53125 
Q 39.546875 41.84375 41.421875 45.53125 
Q 43.3125 49.21875 43.3125 52.78125 
Q 43.3125 58.59375 39.234375 62.25 
Q 35.15625 65.921875 28.609375 65.921875 
Q 23.96875 65.921875 18.8125 64.3125 
Q 13.671875 62.703125 7.8125 59.421875 
L 7.8125 69.390625 
Q 13.765625 71.78125 18.9375 73 
Q 24.125 74.21875 28.421875 74.21875 
Q 39.75 74.21875 46.484375 68.546875 
Q 53.21875 62.890625 53.21875 53.421875 
Q 53.21875 48.921875 51.53125 44.890625 
Q 49.859375 40.875 45.40625 35.40625 
Q 44.1875 33.984375 37.640625 27.21875 
Q 31.109375 20.453125 19.1875 8.296875 
" id="BitstreamVeraSans-Roman-32"/>
      </defs>
      <g transform="translate(369.1228125 479.67812499999997)scale(0.12 -0.12)">
       <use xlink:href="#BitstreamVeraSans-Roman-32"/>
      </g>
     </g>
    </g>
    <g id="xtick_5">
     <g id="line2d_10">
      <g>
       <use style="stroke:#000000;stroke-width:0.5;" x="459.86625" xlink:href="#m1c7787994f" y="466.56"/>
      </g>
     </g>
     <g id="line2d_11">
      <g>
       <use style="stroke:#000000;stroke-width:0.5;" x="459.86625" xlink:href="#mfbd9eb8cb0" y="51.839999999999975"/>
      </g>
     </g>
     <g id="text_5">
      <!-- 3 -->
      <defs>
       <path d="M 40.578125 39.3125 
Q 47.65625 37.796875 51.625 33 
Q 55.609375 28.21875 55.609375 21.1875 
Q 55.609375 10.40625 48.1875 4.484375 
Q 40.765625 -1.421875 27.09375 -1.421875 
Q 22.515625 -1.421875 17.65625 -0.515625 
Q 12.796875 0.390625 7.625 2.203125 
L 7.625 11.71875 
Q 11.71875 9.328125 16.59375 8.109375 
Q 21.484375 6.890625 26.8125 6.890625 
Q 36.078125 6.890625 40.9375 10.546875 
Q 45.796875 14.203125 45.796875 21.1875 
Q 45.796875 27.640625 41.28125 31.265625 
Q 36.765625 34.90625 28.71875 34.90625 
L 20.21875 34.90625 
L 20.21875 43.015625 
L 29.109375 43.015625 
Q 36.375 43.015625 40.234375 45.921875 
Q 44.09375 48.828125 44.09375 54.296875 
Q 44.09375 59.90625 40.109375 62.90625 
Q 36.140625 65.921875 28.71875 65.921875 
Q 24.65625 65.921875 20.015625 65.03125 
Q 15.375 64.15625 9.8125 62.3125 
L 9.8125 71.09375 
Q 15.4375 72.65625 20.34375 73.4375 
Q 25.25 74.21875 29.59375 74.21875 
Q 40.828125 74.21875 47.359375 69.109375 
Q 53.90625 64.015625 53.90625 55.328125 
Q 53.90625 49.265625 50.4375 45.09375 
Q 46.96875 40.921875 40.578125 39.3125 
" id="BitstreamVeraSans-Roman-33"/>
      </defs>
      <g transform="translate(456.04875 479.67812499999997)scale(0.12 -0.12)">
       <use xlink:href="#BitstreamVeraSans-Roman-33"/>
      </g>
     </g>
    </g>
    <g id="xtick_6">
     <g id="line2d_12">
      <g>
       <use style="stroke:#000000;stroke-width:0.5;" x="546.7921875" xlink:href="#m1c7787994f" y="466.56"/>
      </g>
     </g>
     <g id="line2d_13">
      <g>
       <use style="stroke:#000000;stroke-width:0.5;" x="546.7921875" xlink:href="#mfbd9eb8cb0" y="51.839999999999975"/>
      </g>
     </g>
     <g id="text_6">
      <!-- 4 -->
      <defs>
       <path d="M 37.796875 64.3125 
L 12.890625 25.390625 
L 37.796875 25.390625 
z
M 35.203125 72.90625 
L 47.609375 72.90625 
L 47.609375 25.390625 
L 58.015625 25.390625 
L 58.015625 17.1875 
L 47.609375 17.1875 
L 47.609375 0 
L 37.796875 0 
L 37.796875 17.1875 
L 4.890625 17.1875 
L 4.890625 26.703125 
z
" id="BitstreamVeraSans-Roman-34"/>
      </defs>
      <g transform="translate(542.9746875 479.67812499999997)scale(0.12 -0.12)">
       <use xlink:href="#BitstreamVeraSans-Roman-34"/>
      </g>
     </g>
    </g>
    <g id="xtick_7">
     <g id="line2d_14">
      <g>
       <use style="stroke:#000000;stroke-width:0.5;" x="633.7181250000001" xlink:href="#m1c7787994f" y="466.56"/>
      </g>
     </g>
     <g id="line2d_15">
      <g>
       <use style="stroke:#000000;stroke-width:0.5;" x="633.7181250000001" xlink:href="#mfbd9eb8cb0" y="51.839999999999975"/>
      </g>
     </g>
     <g id="text_7">
      <!-- 5 -->
      <defs>
       <path d="M 10.796875 72.90625 
L 49.515625 72.90625 
L 49.515625 64.59375 
L 19.828125 64.59375 
L 19.828125 46.734375 
Q 21.96875 47.46875 24.109375 47.828125 
Q 26.265625 48.1875 28.421875 48.1875 
Q 40.625 48.1875 47.75 41.5 
Q 54.890625 34.8125 54.890625 23.390625 
Q 54.890625 11.625 47.5625 5.09375 
Q 40.234375 -1.421875 26.90625 -1.421875 
Q 22.3125 -1.421875 17.546875 -0.640625 
Q 12.796875 0.140625 7.71875 1.703125 
L 7.71875 11.625 
Q 12.109375 9.234375 16.796875 8.0625 
Q 21.484375 6.890625 26.703125 6.890625 
Q 35.15625 6.890625 40.078125 11.328125 
Q 45.015625 15.765625 45.015625 23.390625 
Q 45.015625 31 40.078125 35.4375 
Q 35.15625 39.890625 26.703125 39.890625 
Q 22.75 39.890625 18.8125 39.015625 
Q 14.890625 38.140625 10.796875 36.28125 
z
" id="BitstreamVeraSans-Roman-35"/>
      </defs>
      <g transform="translate(629.9006250000001 479.67812499999997)scale(0.12 -0.12)">
       <use xlink:href="#BitstreamVeraSans-Roman-35"/>
      </g>
     </g>
    </g>
    <g id="xtick_8">
     <g id="line2d_16">
      <g>
       <use style="stroke:#000000;stroke-width:0.5;" x="720.6440625" xlink:href="#m1c7787994f" y="466.56"/>
      </g>
     </g>
     <g id="line2d_17">
      <g>
       <use style="stroke:#000000;stroke-width:0.5;" x="720.6440625" xlink:href="#mfbd9eb8cb0" y="51.839999999999975"/>
      </g>
     </g>
     <g id="text_8">
      <!-- 6 -->
      <defs>
       <path d="M 33.015625 40.375 
Q 26.375 40.375 22.484375 35.828125 
Q 18.609375 31.296875 18.609375 23.390625 
Q 18.609375 15.53125 22.484375 10.953125 
Q 26.375 6.390625 33.015625 6.390625 
Q 39.65625 6.390625 43.53125 10.953125 
Q 47.40625 15.53125 47.40625 23.390625 
Q 47.40625 31.296875 43.53125 35.828125 
Q 39.65625 40.375 33.015625 40.375 
M 52.59375 71.296875 
L 52.59375 62.3125 
Q 48.875 64.0625 45.09375 64.984375 
Q 41.3125 65.921875 37.59375 65.921875 
Q 27.828125 65.921875 22.671875 59.328125 
Q 17.53125 52.734375 16.796875 39.40625 
Q 19.671875 43.65625 24.015625 45.921875 
Q 28.375 48.1875 33.59375 48.1875 
Q 44.578125 48.1875 50.953125 41.515625 
Q 57.328125 34.859375 57.328125 23.390625 
Q 57.328125 12.15625 50.6875 5.359375 
Q 44.046875 -1.421875 33.015625 -1.421875 
Q 20.359375 -1.421875 13.671875 8.265625 
Q 6.984375 17.96875 6.984375 36.375 
Q 6.984375 53.65625 15.1875 63.9375 
Q 23.390625 74.21875 37.203125 74.21875 
Q 40.921875 74.21875 44.703125 73.484375 
Q 48.484375 72.75 52.59375 71.296875 
" id="BitstreamVeraSans-Roman-36"/>
      </defs>
      <g transform="translate(716.8265625 479.67812499999997)scale(0.12 -0.12)">
       <use xlink:href="#BitstreamVeraSans-Roman-36"/>
      </g>
     </g>
    </g>
    <g id="xtick_9">
     <g id="line2d_18">
      <g>
       <use style="stroke:#000000;stroke-width:0.5;" x="807.5699999999999" xlink:href="#m1c7787994f" y="466.56"/>
      </g>
     </g>
     <g id="line2d_19">
      <g>
       <use style="stroke:#000000;stroke-width:0.5;" x="807.5699999999999" xlink:href="#mfbd9eb8cb0" y="51.839999999999975"/>
      </g>
     </g>
     <g id="text_9">
      <!-- 7 -->
      <defs>
       <path d="M 8.203125 72.90625 
L 55.078125 72.90625 
L 55.078125 68.703125 
L 28.609375 0 
L 18.3125 0 
L 43.21875 64.59375 
L 8.203125 64.59375 
z
" id="BitstreamVeraSans-Roman-37"/>
      </defs>
      <g transform="translate(803.7524999999999 479.67812499999997)scale(0.12 -0.12)">
       <use xlink:href="#BitstreamVeraSans-Roman-37"/>
      </g>
     </g>
    </g>
   </g>
   <g id="matplotlib.axis_2">
    <g id="ytick_1">
     <g id="line2d_20">
      <defs>
       <path d="M 0 0 
L 4 0 
" id="mc75d05552b" style="stroke:#000000;stroke-width:0.5;"/>
      </defs>
      <g>
       <use style="stroke:#000000;stroke-width:0.5;" x="112.16250000000001" xlink:href="#mc75d05552b" y="466.56"/>
      </g>
     </g>
     <g id="line2d_21">
      <defs>
       <path d="M 0 0 
L -4 0 
" id="m8bc7823413" style="stroke:#000000;stroke-width:0.5;"/>
      </defs>
      <g>
       <use style="stroke:#000000;stroke-width:0.5;" x="807.57" xlink:href="#m8bc7823413" y="466.56"/>
      </g>
     </g>
     <g id="text_10">
      <!-- −1.5 -->
      <defs>
       <path d="M 10.6875 12.40625 
L 21 12.40625 
L 21 0 
L 10.6875 0 
z
" id="BitstreamVeraSans-Roman-2e"/>
      </defs>
      <g transform="translate(79.02312500000001 469.87125000000003)scale(0.12 -0.12)">
       <use xlink:href="#BitstreamVeraSans-Roman-2212"/>
       <use x="83.7890625" xlink:href="#BitstreamVeraSans-Roman-31"/>
       <use x="147.412109375" xlink:href="#BitstreamVeraSans-Roman-2e"/>
       <use x="179.19921875" xlink:href="#BitstreamVeraSans-Roman-35"/>
      </g>
     </g>
    </g>
    <g id="ytick_2">
     <g id="line2d_22">
      <g>
       <use style="stroke:#000000;stroke-width:0.5;" x="112.16250000000001" xlink:href="#mc75d05552b" y="397.44"/>
      </g>
     </g>
     <g id="line2d_23">
      <g>
       <use style="stroke:#000000;stroke-width:0.5;" x="807.57" xlink:href="#m8bc7823413" y="397.44"/>
      </g>
     </g>
     <g id="text_11">
      <!-- −1.0 -->
      <g transform="translate(79.02312500000001 400.75125)scale(0.12 -0.12)">
       <use xlink:href="#BitstreamVeraSans-Roman-2212"/>
       <use x="83.7890625" xlink:href="#BitstreamVeraSans-Roman-31"/>
       <use x="147.412109375" xlink:href="#BitstreamVeraSans-Roman-2e"/>
       <use x="179.19921875" xlink:href="#BitstreamVeraSans-Roman-30"/>
      </g>
     </g>
    </g>
    <g id="ytick_3">
     <g id="line2d_24">
      <g>
       <use style="stroke:#000000;stroke-width:0.5;" x="112.16250000000001" xlink:href="#mc75d05552b" y="328.32"/>
      </g>
     </g>
     <g id="line2d_25">
      <g>
       <use style="stroke:#000000;stroke-width:0.5;" x="807.57" xlink:href="#m8bc7823413" y="328.32"/>
      </g>
     </g>
     <g id="text_12">
      <!-- −0.5 -->
      <g transform="translate(79.02312500000001 331.63125)scale(0.12 -0.12)">
       <use xlink:href="#BitstreamVeraSans-Roman-2212"/>
       <use x="83.7890625" xlink:href="#BitstreamVeraSans-Roman-30"/>
       <use x="147.412109375" xlink:href="#BitstreamVeraSans-Roman-2e"/>
       <use x="179.19921875" xlink:href="#BitstreamVeraSans-Roman-35"/>
      </g>
     </g>
    </g>
    <g id="ytick_4">
     <g id="line2d_26">
      <g>
       <use style="stroke:#000000;stroke-width:0.5;" x="112.16250000000001" xlink:href="#mc75d05552b" y="259.2"/>
      </g>
     </g>
     <g id="line2d_27">
      <g>
       <use style="stroke:#000000;stroke-width:0.5;" x="807.57" xlink:href="#m8bc7823413" y="259.2"/>
      </g>
     </g>
     <g id="text_13">
      <!-- 0.0 -->
      <g transform="translate(89.07875000000001 262.51125)scale(0.12 -0.12)">
       <use xlink:href="#BitstreamVeraSans-Roman-30"/>
       <use x="63.623046875" xlink:href="#BitstreamVeraSans-Roman-2e"/>
       <use x="95.41015625" xlink:href="#BitstreamVeraSans-Roman-30"/>
      </g>
     </g>
    </g>
    <g id="ytick_5">
     <g id="line2d_28">
      <g>
       <use style="stroke:#000000;stroke-width:0.5;" x="112.16250000000001" xlink:href="#mc75d05552b" y="190.07999999999998"/>
      </g>
     </g>
     <g id="line2d_29">
      <g>
       <use style="stroke:#000000;stroke-width:0.5;" x="807.57" xlink:href="#m8bc7823413" y="190.07999999999998"/>
      </g>
     </g>
     <g id="text_14">
      <!-- 0.5 -->
      <g transform="translate(89.07875000000001 193.39124999999996)scale(0.12 -0.12)">
       <use xlink:href="#BitstreamVeraSans-Roman-30"/>
       <use x="63.623046875" xlink:href="#BitstreamVeraSans-Roman-2e"/>
       <use x="95.41015625" xlink:href="#BitstreamVeraSans-Roman-35"/>
      </g>
     </g>
    </g>
    <g id="ytick_6">
     <g id="line2d_30">
      <g>
       <use style="stroke:#000000;stroke-width:0.5;" x="112.16250000000001" xlink:href="#mc75d05552b" y="120.95999999999998"/>
      </g>
     </g>
     <g id="line2d_31">
      <g>
       <use style="stroke:#000000;stroke-width:0.5;" x="807.57" xlink:href="#m8bc7823413" y="120.95999999999998"/>
      </g>
     </g>
     <g id="text_15">
      <!-- 1.0 -->
      <g transform="translate(89.07875000000001 124.27124999999995)scale(0.12 -0.12)">
       <use xlink:href="#BitstreamVeraSans-Roman-31"/>
       <use x="63.623046875" xlink:href="#BitstreamVeraSans-Roman-2e"/>
       <use x="95.41015625" xlink:href="#BitstreamVeraSans-Roman-30"/>
      </g>
     </g>
    </g>
    <g id="ytick_7">
     <g id="line2d_32">
      <g>
       <use style="stroke:#000000;stroke-width:0.5;" x="112.16250000000001" xlink:href="#mc75d05552b" y="51.839999999999975"/>
      </g>
     </g>
     <g id="line2d_33">
      <g>
       <use style="stroke:#000000;stroke-width:0.5;" x="807.57" xlink:href="#m8bc7823413" y="51.839999999999975"/>
      </g>
     </g>
     <g id="text_16">
      <!-- 1.5 -->
      <g transform="translate(89.07875000000001 55.15124999999995)scale(0.12 -0.12)">
       <use xlink:href="#BitstreamVeraSans-Roman-31"/>
       <use x="63.623046875" xlink:href="#BitstreamVeraSans-Roman-2e"/>
       <use x="95.41015625" xlink:href="#BitstreamVeraSans-Roman-35"/>
      </g>
     </g>
    </g>
   </g>
   <g id="legend_1">
    <g id="patch_7">
     <path d="M 538.69725 147.906 
L 800.37 147.906 
L 800.37 59.04 
L 538.69725 59.04 
z
" style="fill:#ffffff;stroke:#000000;stroke-linejoin:miter;"/>
    </g>
    <g id="line2d_34">
     <path d="M 548.77725 70.70175 
L 568.93725 70.70175 
" style="fill:none;stroke:#008000;stroke-linecap:square;"/>
    </g>
    <g id="line2d_35"/>
    <g id="text_17">
     <!-- sin(x) -->
     <defs>
      <path d="M 8.015625 75.875 
L 15.828125 75.875 
Q 23.140625 64.359375 26.78125 53.3125 
Q 30.421875 42.28125 30.421875 31.390625 
Q 30.421875 20.453125 26.78125 9.375 
Q 23.140625 -1.703125 15.828125 -13.1875 
L 8.015625 -13.1875 
Q 14.5 -2 17.703125 9.0625 
Q 20.90625 20.125 20.90625 31.390625 
Q 20.90625 42.671875 17.703125 53.65625 
Q 14.5 64.65625 8.015625 75.875 
" id="BitstreamVeraSans-Roman-29"/>
      <path d="M 54.890625 33.015625 
L 54.890625 0 
L 45.90625 0 
L 45.90625 32.71875 
Q 45.90625 40.484375 42.875 44.328125 
Q 39.84375 48.1875 33.796875 48.1875 
Q 26.515625 48.1875 22.3125 43.546875 
Q 18.109375 38.921875 18.109375 30.90625 
L 18.109375 0 
L 9.078125 0 
L 9.078125 54.6875 
L 18.109375 54.6875 
L 18.109375 46.1875 
Q 21.34375 51.125 25.703125 53.5625 
Q 30.078125 56 35.796875 56 
Q 45.21875 56 50.046875 50.171875 
Q 54.890625 44.34375 54.890625 33.015625 
" id="BitstreamVeraSans-Roman-6e"/>
      <path d="M 44.28125 53.078125 
L 44.28125 44.578125 
Q 40.484375 46.53125 36.375 47.5 
Q 32.28125 48.484375 27.875 48.484375 
Q 21.1875 48.484375 17.84375 46.4375 
Q 14.5 44.390625 14.5 40.28125 
Q 14.5 37.15625 16.890625 35.375 
Q 19.28125 33.59375 26.515625 31.984375 
L 29.59375 31.296875 
Q 39.15625 29.25 43.1875 25.515625 
Q 47.21875 21.78125 47.21875 15.09375 
Q 47.21875 7.46875 41.1875 3.015625 
Q 35.15625 -1.421875 24.609375 -1.421875 
Q 20.21875 -1.421875 15.453125 -0.5625 
Q 10.6875 0.296875 5.421875 2 
L 5.421875 11.28125 
Q 10.40625 8.6875 15.234375 7.390625 
Q 20.0625 6.109375 24.8125 6.109375 
Q 31.15625 6.109375 34.5625 8.28125 
Q 37.984375 10.453125 37.984375 14.40625 
Q 37.984375 18.0625 35.515625 20.015625 
Q 33.0625 21.96875 24.703125 23.78125 
L 21.578125 24.515625 
Q 13.234375 26.265625 9.515625 29.90625 
Q 5.8125 33.546875 5.8125 39.890625 
Q 5.8125 47.609375 11.28125 51.796875 
Q 16.75 56 26.8125 56 
Q 31.78125 56 36.171875 55.265625 
Q 40.578125 54.546875 44.28125 53.078125 
" id="BitstreamVeraSans-Roman-73"/>
      <path d="M 9.421875 54.6875 
L 18.40625 54.6875 
L 18.40625 0 
L 9.421875 0 
z
M 9.421875 75.984375 
L 18.40625 75.984375 
L 18.40625 64.59375 
L 9.421875 64.59375 
z
" id="BitstreamVeraSans-Roman-69"/>
      <path d="M 54.890625 54.6875 
L 35.109375 28.078125 
L 55.90625 0 
L 45.3125 0 
L 29.390625 21.484375 
L 13.484375 0 
L 2.875 0 
L 24.125 28.609375 
L 4.6875 54.6875 
L 15.28125 54.6875 
L 29.78125 35.203125 
L 44.28125 54.6875 
z
" id="BitstreamVeraSans-Roman-78"/>
      <path d="M 31 75.875 
Q 24.46875 64.65625 21.28125 53.65625 
Q 18.109375 42.671875 18.109375 31.390625 
Q 18.109375 20.125 21.3125 9.0625 
Q 24.515625 -2 31 -13.1875 
L 23.1875 -13.1875 
Q 15.875 -1.703125 12.234375 9.375 
Q 8.59375 20.453125 8.59375 31.390625 
Q 8.59375 42.28125 12.203125 53.3125 
Q 15.828125 64.359375 23.1875 75.875 
z
" id="BitstreamVeraSans-Roman-28"/>
     </defs>
     <g transform="translate(584.7772500000001 75.74174999999997)scale(0.144 -0.144)">
      <use xlink:href="#BitstreamVeraSans-Roman-73"/>
      <use x="52.099609375" xlink:href="#BitstreamVeraSans-Roman-69"/>
      <use x="79.8828125" xlink:href="#BitstreamVeraSans-Roman-6e"/>
      <use x="143.26171875" xlink:href="#BitstreamVeraSans-Roman-28"/>
      <use x="182.275390625" xlink:href="#BitstreamVeraSans-Roman-78"/>
      <use x="241.455078125" xlink:href="#BitstreamVeraSans-Roman-29"/>
     </g>
    </g>
    <g id="PathCollection_4">
     <path d="M 548.77725 95.334318 
C 549.370262 95.334318 549.939066 95.098712 550.358389 94.679389 
C 550.777712 94.260066 551.013318 93.691262 551.013318 93.09825 
C 551.013318 92.505238 550.777712 91.936434 550.358389 91.517111 
C 549.939066 91.097788 549.370262 90.862182 548.77725 90.862182 
C 548.184238 90.862182 547.615434 91.097788 547.196111 91.517111 
C 546.776788 91.936434 546.541182 92.505238 546.541182 93.09825 
C 546.541182 93.691262 546.776788 94.260066 547.196111 94.679389 
C 547.615434 95.098712 548.184238 95.334318 548.77725 95.334318 
z
" style="fill:#ff0000;stroke:#000000;"/>
     <path d="M 558.85725 94.074318 
C 559.450262 94.074318 560.019066 93.838712 560.438389 93.419389 
C 560.857712 93.000066 561.093318 92.431262 561.093318 91.83825 
C 561.093318 91.245238 560.857712 90.676434 560.438389 90.257111 
C 560.019066 89.837788 559.450262 89.602182 558.85725 89.602182 
C 558.264238 89.602182 557.695434 89.837788 557.276111 90.257111 
C 556.856788 90.676434 556.621182 91.245238 556.621182 91.83825 
C 556.621182 92.431262 556.856788 93.000066 557.276111 93.419389 
C 557.695434 93.838712 558.264238 94.074318 558.85725 94.074318 
z
" style="fill:#ff0000;stroke:#000000;"/>
     <path d="M 568.93725 95.964318 
C 569.530262 95.964318 570.099066 95.728712 570.518389 95.309389 
C 570.937712 94.890066 571.173318 94.321262 571.173318 93.72825 
C 571.173318 93.135238 570.937712 92.566434 570.518389 92.147111 
C 570.099066 91.727788 569.530262 91.492182 568.93725 91.492182 
C 568.344238 91.492182 567.775434 91.727788 567.356111 92.147111 
C 566.936788 92.566434 566.701182 93.135238 566.701182 93.72825 
C 566.701182 94.321262 566.936788 94.890066 567.356111 95.309389 
C 567.775434 95.728712 568.344238 95.964318 568.93725 95.964318 
z
" style="fill:#ff0000;stroke:#000000;"/>
    </g>
    <g id="text_18">
     <!-- Initial weights -->
     <defs>
      <path d="M 56.203125 29.59375 
L 56.203125 25.203125 
L 14.890625 25.203125 
Q 15.484375 15.921875 20.484375 11.0625 
Q 25.484375 6.203125 34.421875 6.203125 
Q 39.59375 6.203125 44.453125 7.46875 
Q 49.3125 8.734375 54.109375 11.28125 
L 54.109375 2.78125 
Q 49.265625 0.734375 44.1875 -0.34375 
Q 39.109375 -1.421875 33.890625 -1.421875 
Q 20.796875 -1.421875 13.15625 6.1875 
Q 5.515625 13.8125 5.515625 26.8125 
Q 5.515625 40.234375 12.765625 48.109375 
Q 20.015625 56 32.328125 56 
Q 43.359375 56 49.78125 48.890625 
Q 56.203125 41.796875 56.203125 29.59375 
M 47.21875 32.234375 
Q 47.125 39.59375 43.09375 43.984375 
Q 39.0625 48.390625 32.421875 48.390625 
Q 24.90625 48.390625 20.390625 44.140625 
Q 15.875 39.890625 15.1875 32.171875 
z
" id="BitstreamVeraSans-Roman-65"/>
      <path d="M 34.28125 27.484375 
Q 23.390625 27.484375 19.1875 25 
Q 14.984375 22.515625 14.984375 16.5 
Q 14.984375 11.71875 18.140625 8.90625 
Q 21.296875 6.109375 26.703125 6.109375 
Q 34.1875 6.109375 38.703125 11.40625 
Q 43.21875 16.703125 43.21875 25.484375 
L 43.21875 27.484375 
z
M 52.203125 31.203125 
L 52.203125 0 
L 43.21875 0 
L 43.21875 8.296875 
Q 40.140625 3.328125 35.546875 0.953125 
Q 30.953125 -1.421875 24.3125 -1.421875 
Q 15.921875 -1.421875 10.953125 3.296875 
Q 6 8.015625 6 15.921875 
Q 6 25.140625 12.171875 29.828125 
Q 18.359375 34.515625 30.609375 34.515625 
L 43.21875 34.515625 
L 43.21875 35.40625 
Q 43.21875 41.609375 39.140625 45 
Q 35.0625 48.390625 27.6875 48.390625 
Q 23 48.390625 18.546875 47.265625 
Q 14.109375 46.140625 10.015625 43.890625 
L 10.015625 52.203125 
Q 14.9375 54.109375 19.578125 55.046875 
Q 24.21875 56 28.609375 56 
Q 40.484375 56 46.34375 49.84375 
Q 52.203125 43.703125 52.203125 31.203125 
" id="BitstreamVeraSans-Roman-61"/>
      <path d="M 9.8125 72.90625 
L 19.671875 72.90625 
L 19.671875 0 
L 9.8125 0 
z
" id="BitstreamVeraSans-Roman-49"/>
      <path d="M 9.421875 75.984375 
L 18.40625 75.984375 
L 18.40625 0 
L 9.421875 0 
z
" id="BitstreamVeraSans-Roman-6c"/>
      <path d="M 45.40625 27.984375 
Q 45.40625 37.75 41.375 43.109375 
Q 37.359375 48.484375 30.078125 48.484375 
Q 22.859375 48.484375 18.828125 43.109375 
Q 14.796875 37.75 14.796875 27.984375 
Q 14.796875 18.265625 18.828125 12.890625 
Q 22.859375 7.515625 30.078125 7.515625 
Q 37.359375 7.515625 41.375 12.890625 
Q 45.40625 18.265625 45.40625 27.984375 
M 54.390625 6.78125 
Q 54.390625 -7.171875 48.1875 -13.984375 
Q 42 -20.796875 29.203125 -20.796875 
Q 24.46875 -20.796875 20.265625 -20.09375 
Q 16.0625 -19.390625 12.109375 -17.921875 
L 12.109375 -9.1875 
Q 16.0625 -11.328125 19.921875 -12.34375 
Q 23.78125 -13.375 27.78125 -13.375 
Q 36.625 -13.375 41.015625 -8.765625 
Q 45.40625 -4.15625 45.40625 5.171875 
L 45.40625 9.625 
Q 42.625 4.78125 38.28125 2.390625 
Q 33.9375 0 27.875 0 
Q 17.828125 0 11.671875 7.65625 
Q 5.515625 15.328125 5.515625 27.984375 
Q 5.515625 40.671875 11.671875 48.328125 
Q 17.828125 56 27.875 56 
Q 33.9375 56 38.28125 53.609375 
Q 42.625 51.21875 45.40625 46.390625 
L 45.40625 54.6875 
L 54.390625 54.6875 
z
" id="BitstreamVeraSans-Roman-67"/>
      <path d="M 18.3125 70.21875 
L 18.3125 54.6875 
L 36.8125 54.6875 
L 36.8125 47.703125 
L 18.3125 47.703125 
L 18.3125 18.015625 
Q 18.3125 11.328125 20.140625 9.421875 
Q 21.96875 7.515625 27.59375 7.515625 
L 36.8125 7.515625 
L 36.8125 0 
L 27.59375 0 
Q 17.1875 0 13.234375 3.875 
Q 9.28125 7.765625 9.28125 18.015625 
L 9.28125 47.703125 
L 2.6875 47.703125 
L 2.6875 54.6875 
L 9.28125 54.6875 
L 9.28125 70.21875 
z
" id="BitstreamVeraSans-Roman-74"/>
      <path d="M 4.203125 54.6875 
L 13.1875 54.6875 
L 24.421875 12.015625 
L 35.59375 54.6875 
L 46.1875 54.6875 
L 57.421875 12.015625 
L 68.609375 54.6875 
L 77.59375 54.6875 
L 63.28125 0 
L 52.6875 0 
L 40.921875 44.828125 
L 29.109375 0 
L 18.5 0 
z
" id="BitstreamVeraSans-Roman-77"/>
      <path id="BitstreamVeraSans-Roman-20"/>
      <path d="M 54.890625 33.015625 
L 54.890625 0 
L 45.90625 0 
L 45.90625 32.71875 
Q 45.90625 40.484375 42.875 44.328125 
Q 39.84375 48.1875 33.796875 48.1875 
Q 26.515625 48.1875 22.3125 43.546875 
Q 18.109375 38.921875 18.109375 30.90625 
L 18.109375 0 
L 9.078125 0 
L 9.078125 75.984375 
L 18.109375 75.984375 
L 18.109375 46.1875 
Q 21.34375 51.125 25.703125 53.5625 
Q 30.078125 56 35.796875 56 
Q 45.21875 56 50.046875 50.171875 
Q 54.890625 44.34375 54.890625 33.015625 
" id="BitstreamVeraSans-Roman-68"/>
     </defs>
     <g transform="translate(584.7772500000001 96.87824999999998)scale(0.144 -0.144)">
      <use xlink:href="#BitstreamVeraSans-Roman-49"/>
      <use x="29.4921875" xlink:href="#BitstreamVeraSans-Roman-6e"/>
      <use x="92.87109375" xlink:href="#BitstreamVeraSans-Roman-69"/>
      <use x="120.654296875" xlink:href="#BitstreamVeraSans-Roman-74"/>
      <use x="159.86328125" xlink:href="#BitstreamVeraSans-Roman-69"/>
      <use x="187.646484375" xlink:href="#BitstreamVeraSans-Roman-61"/>
      <use x="248.92578125" xlink:href="#BitstreamVeraSans-Roman-6c"/>
      <use x="276.708984375" xlink:href="#BitstreamVeraSans-Roman-20"/>
      <use x="308.49609375" xlink:href="#BitstreamVeraSans-Roman-77"/>
      <use x="390.283203125" xlink:href="#BitstreamVeraSans-Roman-65"/>
      <use x="451.806640625" xlink:href="#BitstreamVeraSans-Roman-69"/>
      <use x="479.58984375" xlink:href="#BitstreamVeraSans-Roman-67"/>
      <use x="543.06640625" xlink:href="#BitstreamVeraSans-Roman-68"/>
      <use x="606.4453125" xlink:href="#BitstreamVeraSans-Roman-74"/>
      <use x="645.654296875" xlink:href="#BitstreamVeraSans-Roman-73"/>
     </g>
    </g>
    <g id="PathCollection_5">
     <path d="M 548.77725 116.470818 
C 549.370262 116.470818 549.939066 116.235212 550.358389 115.815889 
C 550.777712 115.396566 551.013318 114.827762 551.013318 114.23475 
C 551.013318 113.641738 550.777712 113.072934 550.358389 112.653611 
C 549.939066 112.234288 549.370262 111.998682 548.77725 111.998682 
C 548.184238 111.998682 547.615434 112.234288 547.196111 112.653611 
C 546.776788 113.072934 546.541182 113.641738 546.541182 114.23475 
C 546.541182 114.827762 546.776788 115.396566 547.196111 115.815889 
C 547.615434 116.235212 548.184238 116.470818 548.77725 116.470818 
z
" style="stroke:#000000;"/>
     <path d="M 558.85725 115.210818 
C 559.450262 115.210818 560.019066 114.975212 560.438389 114.555889 
C 560.857712 114.136566 561.093318 113.567762 561.093318 112.97475 
C 561.093318 112.381738 560.857712 111.812934 560.438389 111.393611 
C 560.019066 110.974288 559.450262 110.738682 558.85725 110.738682 
C 558.264238 110.738682 557.695434 110.974288 557.276111 111.393611 
C 556.856788 111.812934 556.621182 112.381738 556.621182 112.97475 
C 556.621182 113.567762 556.856788 114.136566 557.276111 114.555889 
C 557.695434 114.975212 558.264238 115.210818 558.85725 115.210818 
z
" style="stroke:#000000;"/>
     <path d="M 568.93725 117.100818 
C 569.530262 117.100818 570.099066 116.865212 570.518389 116.445889 
C 570.937712 116.026566 571.173318 115.457762 571.173318 114.86475 
C 571.173318 114.271738 570.937712 113.702934 570.518389 113.283611 
C 570.099066 112.864288 569.530262 112.628682 568.93725 112.628682 
C 568.344238 112.628682 567.775434 112.864288 567.356111 113.283611 
C 566.936788 113.702934 566.701182 114.271738 566.701182 114.86475 
C 566.701182 115.457762 566.936788 116.026566 567.356111 116.445889 
C 567.775434 116.865212 568.344238 117.100818 568.93725 117.100818 
z
" style="stroke:#000000;"/>
    </g>
    <g id="text_19">
     <!-- After 200 training iterations -->
     <defs>
      <path d="M 41.109375 46.296875 
Q 39.59375 47.171875 37.8125 47.578125 
Q 36.03125 48 33.890625 48 
Q 26.265625 48 22.1875 43.046875 
Q 18.109375 38.09375 18.109375 28.8125 
L 18.109375 0 
L 9.078125 0 
L 9.078125 54.6875 
L 18.109375 54.6875 
L 18.109375 46.1875 
Q 20.953125 51.171875 25.484375 53.578125 
Q 30.03125 56 36.53125 56 
Q 37.453125 56 38.578125 55.875 
Q 39.703125 55.765625 41.0625 55.515625 
z
" id="BitstreamVeraSans-Roman-72"/>
      <path d="M 34.1875 63.1875 
L 20.796875 26.90625 
L 47.609375 26.90625 
z
M 28.609375 72.90625 
L 39.796875 72.90625 
L 67.578125 0 
L 57.328125 0 
L 50.6875 18.703125 
L 17.828125 18.703125 
L 11.1875 0 
L 0.78125 0 
z
" id="BitstreamVeraSans-Roman-41"/>
      <path d="M 30.609375 48.390625 
Q 23.390625 48.390625 19.1875 42.75 
Q 14.984375 37.109375 14.984375 27.296875 
Q 14.984375 17.484375 19.15625 11.84375 
Q 23.34375 6.203125 30.609375 6.203125 
Q 37.796875 6.203125 41.984375 11.859375 
Q 46.1875 17.53125 46.1875 27.296875 
Q 46.1875 37.015625 41.984375 42.703125 
Q 37.796875 48.390625 30.609375 48.390625 
M 30.609375 56 
Q 42.328125 56 49.015625 48.375 
Q 55.71875 40.765625 55.71875 27.296875 
Q 55.71875 13.875 49.015625 6.21875 
Q 42.328125 -1.421875 30.609375 -1.421875 
Q 18.84375 -1.421875 12.171875 6.21875 
Q 5.515625 13.875 5.515625 27.296875 
Q 5.515625 40.765625 12.171875 48.375 
Q 18.84375 56 30.609375 56 
" id="BitstreamVeraSans-Roman-6f"/>
      <path d="M 37.109375 75.984375 
L 37.109375 68.5 
L 28.515625 68.5 
Q 23.6875 68.5 21.796875 66.546875 
Q 19.921875 64.59375 19.921875 59.515625 
L 19.921875 54.6875 
L 34.71875 54.6875 
L 34.71875 47.703125 
L 19.921875 47.703125 
L 19.921875 0 
L 10.890625 0 
L 10.890625 47.703125 
L 2.296875 47.703125 
L 2.296875 54.6875 
L 10.890625 54.6875 
L 10.890625 58.5 
Q 10.890625 67.625 15.140625 71.796875 
Q 19.390625 75.984375 28.609375 75.984375 
z
" id="BitstreamVeraSans-Roman-66"/>
     </defs>
     <g transform="translate(584.7772500000001 118.01474999999994)scale(0.144 -0.144)">
      <use xlink:href="#BitstreamVeraSans-Roman-41"/>
      <use x="68.361328125" xlink:href="#BitstreamVeraSans-Roman-66"/>
      <use x="103.55078125" xlink:href="#BitstreamVeraSans-Roman-74"/>
      <use x="142.759765625" xlink:href="#BitstreamVeraSans-Roman-65"/>
      <use x="204.283203125" xlink:href="#BitstreamVeraSans-Roman-72"/>
      <use x="245.396484375" xlink:href="#BitstreamVeraSans-Roman-20"/>
      <use x="277.18359375" xlink:href="#BitstreamVeraSans-Roman-32"/>
      <use x="340.806640625" xlink:href="#BitstreamVeraSans-Roman-30"/>
      <use x="404.4296875" xlink:href="#BitstreamVeraSans-Roman-30"/>
      <use x="468.052734375" xlink:href="#BitstreamVeraSans-Roman-20"/>
      <use x="499.83984375" xlink:href="#BitstreamVeraSans-Roman-74"/>
      <use x="539.048828125" xlink:href="#BitstreamVeraSans-Roman-72"/>
      <use x="580.162109375" xlink:href="#BitstreamVeraSans-Roman-61"/>
      <use x="641.44140625" xlink:href="#BitstreamVeraSans-Roman-69"/>
      <use x="669.224609375" xlink:href="#BitstreamVeraSans-Roman-6e"/>
      <use x="732.603515625" xlink:href="#BitstreamVeraSans-Roman-69"/>
      <use x="760.38671875" xlink:href="#BitstreamVeraSans-Roman-6e"/>
      <use x="823.765625" xlink:href="#BitstreamVeraSans-Roman-67"/>
      <use x="887.2421875" xlink:href="#BitstreamVeraSans-Roman-20"/>
      <use x="919.029296875" xlink:href="#BitstreamVeraSans-Roman-69"/>
      <use x="946.8125" xlink:href="#BitstreamVeraSans-Roman-74"/>
      <use x="986.021484375" xlink:href="#BitstreamVeraSans-Roman-65"/>
      <use x="1047.544921875" xlink:href="#BitstreamVeraSans-Roman-72"/>
      <use x="1088.658203125" xlink:href="#BitstreamVeraSans-Roman-61"/>
      <use x="1149.9375" xlink:href="#BitstreamVeraSans-Roman-74"/>
      <use x="1189.146484375" xlink:href="#BitstreamVeraSans-Roman-69"/>
      <use x="1216.9296875" xlink:href="#BitstreamVeraSans-Roman-6f"/>
      <use x="1278.111328125" xlink:href="#BitstreamVeraSans-Roman-6e"/>
      <use x="1341.490234375" xlink:href="#BitstreamVeraSans-Roman-73"/>
     </g>
    </g>
    <g id="PathCollection_6">
     <path d="M 548.77725 137.607318 
C 549.370262 137.607318 549.939066 137.371712 550.358389 136.952389 
C 550.777712 136.533066 551.013318 135.964262 551.013318 135.37125 
C 551.013318 134.778238 550.777712 134.209434 550.358389 133.790111 
C 549.939066 133.370788 549.370262 133.135182 548.77725 133.135182 
C 548.184238 133.135182 547.615434 133.370788 547.196111 133.790111 
C 546.776788 134.209434 546.541182 134.778238 546.541182 135.37125 
C 546.541182 135.964262 546.776788 136.533066 547.196111 136.952389 
C 547.615434 137.371712 548.184238 137.607318 548.77725 137.607318 
z
" style="fill:#0000ff;stroke:#000000;"/>
     <path d="M 558.85725 136.347318 
C 559.450262 136.347318 560.019066 136.111712 560.438389 135.692389 
C 560.857712 135.273066 561.093318 134.704262 561.093318 134.11125 
C 561.093318 133.518238 560.857712 132.949434 560.438389 132.530111 
C 560.019066 132.110788 559.450262 131.875182 558.85725 131.875182 
C 558.264238 131.875182 557.695434 132.110788 557.276111 132.530111 
C 556.856788 132.949434 556.621182 133.518238 556.621182 134.11125 
C 556.621182 134.704262 556.856788 135.273066 557.276111 135.692389 
C 557.695434 136.111712 558.264238 136.347318 558.85725 136.347318 
z
" style="fill:#0000ff;stroke:#000000;"/>
     <path d="M 568.93725 138.237318 
C 569.530262 138.237318 570.099066 138.001712 570.518389 137.582389 
C 570.937712 137.163066 571.173318 136.594262 571.173318 136.00125 
C 571.173318 135.408238 570.937712 134.839434 570.518389 134.420111 
C 570.099066 134.000788 569.530262 133.765182 568.93725 133.765182 
C 568.344238 133.765182 567.775434 134.000788 567.356111 134.420111 
C 566.936788 134.839434 566.701182 135.408238 566.701182 136.00125 
C 566.701182 136.594262 566.936788 137.163066 567.356111 137.582389 
C 567.775434 138.001712 568.344238 138.237318 568.93725 138.237318 
z
" style="fill:#0000ff;stroke:#000000;"/>
    </g>
    <g id="text_20">
     <!-- After 2000 training iterations -->
     <g transform="translate(584.7772500000001 139.15124999999995)scale(0.144 -0.144)">
      <use xlink:href="#BitstreamVeraSans-Roman-41"/>
      <use x="68.361328125" xlink:href="#BitstreamVeraSans-Roman-66"/>
      <use x="103.55078125" xlink:href="#BitstreamVeraSans-Roman-74"/>
      <use x="142.759765625" xlink:href="#BitstreamVeraSans-Roman-65"/>
      <use x="204.283203125" xlink:href="#BitstreamVeraSans-Roman-72"/>
      <use x="245.396484375" xlink:href="#BitstreamVeraSans-Roman-20"/>
      <use x="277.18359375" xlink:href="#BitstreamVeraSans-Roman-32"/>
      <use x="340.806640625" xlink:href="#BitstreamVeraSans-Roman-30"/>
      <use x="404.4296875" xlink:href="#BitstreamVeraSans-Roman-30"/>
      <use x="468.052734375" xlink:href="#BitstreamVeraSans-Roman-30"/>
      <use x="531.67578125" xlink:href="#BitstreamVeraSans-Roman-20"/>
      <use x="563.462890625" xlink:href="#BitstreamVeraSans-Roman-74"/>
      <use x="602.671875" xlink:href="#BitstreamVeraSans-Roman-72"/>
      <use x="643.78515625" xlink:href="#BitstreamVeraSans-Roman-61"/>
      <use x="705.064453125" xlink:href="#BitstreamVeraSans-Roman-69"/>
      <use x="732.84765625" xlink:href="#BitstreamVeraSans-Roman-6e"/>
      <use x="796.2265625" xlink:href="#BitstreamVeraSans-Roman-69"/>
      <use x="824.009765625" xlink:href="#BitstreamVeraSans-Roman-6e"/>
      <use x="887.388671875" xlink:href="#BitstreamVeraSans-Roman-67"/>
      <use x="950.865234375" xlink:href="#BitstreamVeraSans-Roman-20"/>
      <use x="982.65234375" xlink:href="#BitstreamVeraSans-Roman-69"/>
      <use x="1010.435546875" xlink:href="#BitstreamVeraSans-Roman-74"/>
      <use x="1049.64453125" xlink:href="#BitstreamVeraSans-Roman-65"/>
      <use x="1111.16796875" xlink:href="#BitstreamVeraSans-Roman-72"/>
      <use x="1152.28125" xlink:href="#BitstreamVeraSans-Roman-61"/>
      <use x="1213.560546875" xlink:href="#BitstreamVeraSans-Roman-74"/>
      <use x="1252.76953125" xlink:href="#BitstreamVeraSans-Roman-69"/>
      <use x="1280.552734375" xlink:href="#BitstreamVeraSans-Roman-6f"/>
      <use x="1341.734375" xlink:href="#BitstreamVeraSans-Roman-6e"/>
      <use x="1405.11328125" xlink:href="#BitstreamVeraSans-Roman-73"/>
     </g>
    </g>
   </g>
  </g>
 </g>
 <defs>
  <clipPath id="p0c5796ade1">
   <rect height="414.72" width="695.4075" x="112.16250000000001" y="51.839999999999975"/>
  </clipPath>
 </defs>
</svg>
